<svg width="100%" viewBox="0 0 920 552" role="img" xmlns="http://www.w3.org/2000/svg">
<title>DataLoader collate_fn batch processing pipeline</title>
<desc>A batch of two variable-length sentences is transformed in three steps: window padding adds pad tokens at both ends, tokens are converted to indices, then pad_sequence equalizes length to produce a rectangular tensor of shape 2 by 9 plus a lengths vector.</desc>
<defs>
<marker id="arr" viewBox="0 0 10 10" refX="8" refY="5" markerWidth="7" markerHeight="7" orient="auto-start-reverse"><path d="M0 0 L10 5 L0 10 z" fill="#1a1a1a"/></marker>
</defs>

<text x="20" y="58" font-size="14" font-weight="500" fill="#2C2C2A">원본 배치</text>
<text x="20" y="76" font-size="11" fill="#888780">batch_size = 2</text>
<text x="20" y="96" font-size="11" fill="#993C1D">길이 4, 5 — 제각각</text>
<g font-size="12" text-anchor="middle">
<rect x="210" y="40" width="60" height="30" rx="6" fill="#E6F1FB" stroke="#378ADD" stroke-width="1.5"/><text x="240" y="60" fill="#042C53">we</text>
<rect x="276" y="40" width="60" height="30" rx="6" fill="#E6F1FB" stroke="#378ADD" stroke-width="1.5"/><text x="306" y="60" fill="#042C53">traveled</text>
<rect x="342" y="40" width="60" height="30" rx="6" fill="#E6F1FB" stroke="#378ADD" stroke-width="1.5"/><text x="372" y="60" fill="#042C53">to</text>
<rect x="408" y="40" width="60" height="30" rx="6" fill="#E6F1FB" stroke="#378ADD" stroke-width="1.5"/><text x="438" y="60" fill="#042C53">jordan</text>
<rect x="210" y="78" width="60" height="30" rx="6" fill="#E6F1FB" stroke="#378ADD" stroke-width="1.5"/><text x="240" y="98" fill="#042C53">michael</text>
<rect x="276" y="78" width="60" height="30" rx="6" fill="#E6F1FB" stroke="#378ADD" stroke-width="1.5"/><text x="306" y="98" fill="#042C53">jordan</text>
<rect x="342" y="78" width="60" height="30" rx="6" fill="#E6F1FB" stroke="#378ADD" stroke-width="1.5"/><text x="372" y="98" fill="#042C53">scored</text>
<rect x="408" y="78" width="60" height="30" rx="6" fill="#E6F1FB" stroke="#378ADD" stroke-width="1.5"/><text x="438" y="98" fill="#042C53">forty</text>
<rect x="474" y="78" width="60" height="30" rx="6" fill="#E6F1FB" stroke="#378ADD" stroke-width="1.5"/><text x="504" y="98" fill="#042C53">points</text>
</g>
<line x1="110" y1="114" x2="110" y2="162" stroke="#1a1a1a" stroke-width="2" marker-end="url(#arr)"/>

<text x="20" y="188" font-size="14" font-weight="500" fill="#2C2C2A">① 윈도우 패딩</text>
<text x="20" y="206" font-size="11" fill="#888780">pad_window, N=2</text>
<text x="20" y="226" font-size="11" fill="#5F5E5A">양끝 2개씩 &lt;pad&gt;</text>
<g font-size="12" text-anchor="middle">
<rect x="210" y="170" width="60" height="30" rx="6" fill="#F1EFE8" stroke="#B4B2A9" stroke-width="1.5"/><text x="240" y="190" fill="#888780">&lt;pad&gt;</text>
<rect x="276" y="170" width="60" height="30" rx="6" fill="#F1EFE8" stroke="#B4B2A9" stroke-width="1.5"/><text x="306" y="190" fill="#888780">&lt;pad&gt;</text>
<rect x="342" y="170" width="60" height="30" rx="6" fill="#E6F1FB" stroke="#378ADD" stroke-width="1.5"/><text x="372" y="190" fill="#042C53">we</text>
<rect x="408" y="170" width="60" height="30" rx="6" fill="#E6F1FB" stroke="#378ADD" stroke-width="1.5"/><text x="438" y="190" fill="#042C53">traveled</text>
<rect x="474" y="170" width="60" height="30" rx="6" fill="#E6F1FB" stroke="#378ADD" stroke-width="1.5"/><text x="504" y="190" fill="#042C53">to</text>
<rect x="540" y="170" width="60" height="30" rx="6" fill="#E6F1FB" stroke="#378ADD" stroke-width="1.5"/><text x="570" y="190" fill="#042C53">jordan</text>
<rect x="606" y="170" width="60" height="30" rx="6" fill="#F1EFE8" stroke="#B4B2A9" stroke-width="1.5"/><text x="636" y="190" fill="#888780">&lt;pad&gt;</text>
<rect x="672" y="170" width="60" height="30" rx="6" fill="#F1EFE8" stroke="#B4B2A9" stroke-width="1.5"/><text x="702" y="190" fill="#888780">&lt;pad&gt;</text>
<rect x="210" y="208" width="60" height="30" rx="6" fill="#F1EFE8" stroke="#B4B2A9" stroke-width="1.5"/><text x="240" y="228" fill="#888780">&lt;pad&gt;</text>
<rect x="276" y="208" width="60" height="30" rx="6" fill="#F1EFE8" stroke="#B4B2A9" stroke-width="1.5"/><text x="306" y="228" fill="#888780">&lt;pad&gt;</text>
<rect x="342" y="208" width="60" height="30" rx="6" fill="#E6F1FB" stroke="#378ADD" stroke-width="1.5"/><text x="372" y="228" fill="#042C53">michael</text>
<rect x="408" y="208" width="60" height="30" rx="6" fill="#E6F1FB" stroke="#378ADD" stroke-width="1.5"/><text x="438" y="228" fill="#042C53">jordan</text>
<rect x="474" y="208" width="60" height="30" rx="6" fill="#E6F1FB" stroke="#378ADD" stroke-width="1.5"/><text x="504" y="228" fill="#042C53">scored</text>
<rect x="540" y="208" width="60" height="30" rx="6" fill="#E6F1FB" stroke="#378ADD" stroke-width="1.5"/><text x="570" y="228" fill="#042C53">forty</text>
<rect x="606" y="208" width="60" height="30" rx="6" fill="#E6F1FB" stroke="#378ADD" stroke-width="1.5"/><text x="636" y="228" fill="#042C53">points</text>
<rect x="672" y="208" width="60" height="30" rx="6" fill="#F1EFE8" stroke="#B4B2A9" stroke-width="1.5"/><text x="702" y="228" fill="#888780">&lt;pad&gt;</text>
<rect x="738" y="208" width="60" height="30" rx="6" fill="#F1EFE8" stroke="#B4B2A9" stroke-width="1.5"/><text x="768" y="228" fill="#888780">&lt;pad&gt;</text>
</g>
<line x1="110" y1="244" x2="110" y2="292" stroke="#1a1a1a" stroke-width="2" marker-end="url(#arr)"/>

<text x="20" y="318" font-size="14" font-weight="500" fill="#2C2C2A">② 인덱스 변환</text>
<text x="20" y="336" font-size="11" fill="#888780">word_to_ix</text>
<text x="20" y="356" font-size="11" fill="#5F5E5A">&lt;pad&gt; = 0</text>
<g font-size="13" text-anchor="middle">
<rect x="210" y="300" width="60" height="30" rx="6" fill="#F1EFE8" stroke="#B4B2A9" stroke-width="1.5"/><text x="240" y="320" fill="#888780">0</text>
<rect x="276" y="300" width="60" height="30" rx="6" fill="#F1EFE8" stroke="#B4B2A9" stroke-width="1.5"/><text x="306" y="320" fill="#888780">0</text>
<rect x="342" y="300" width="60" height="30" rx="6" fill="#FAEEDA" stroke="#EF9F27" stroke-width="1.5"/><text x="372" y="320" fill="#633806">5</text>
<rect x="408" y="300" width="60" height="30" rx="6" fill="#FAEEDA" stroke="#EF9F27" stroke-width="1.5"/><text x="438" y="320" fill="#633806">6</text>
<rect x="474" y="300" width="60" height="30" rx="6" fill="#FAEEDA" stroke="#EF9F27" stroke-width="1.5"/><text x="504" y="320" fill="#633806">7</text>
<rect x="540" y="300" width="60" height="30" rx="6" fill="#FAEEDA" stroke="#EF9F27" stroke-width="1.5"/><text x="570" y="320" fill="#633806">8</text>
<rect x="606" y="300" width="60" height="30" rx="6" fill="#F1EFE8" stroke="#B4B2A9" stroke-width="1.5"/><text x="636" y="320" fill="#888780">0</text>
<rect x="672" y="300" width="60" height="30" rx="6" fill="#F1EFE8" stroke="#B4B2A9" stroke-width="1.5"/><text x="702" y="320" fill="#888780">0</text>
<rect x="210" y="338" width="60" height="30" rx="6" fill="#F1EFE8" stroke="#B4B2A9" stroke-width="1.5"/><text x="240" y="358" fill="#888780">0</text>
<rect x="276" y="338" width="60" height="30" rx="6" fill="#F1EFE8" stroke="#B4B2A9" stroke-width="1.5"/><text x="306" y="358" fill="#888780">0</text>
<rect x="342" y="338" width="60" height="30" rx="6" fill="#FAEEDA" stroke="#EF9F27" stroke-width="1.5"/><text x="372" y="358" fill="#633806">9</text>
<rect x="408" y="338" width="60" height="30" rx="6" fill="#FAEEDA" stroke="#EF9F27" stroke-width="1.5"/><text x="438" y="358" fill="#633806">8</text>
<rect x="474" y="338" width="60" height="30" rx="6" fill="#FAEEDA" stroke="#EF9F27" stroke-width="1.5"/><text x="504" y="358" fill="#633806">11</text>
<rect x="540" y="338" width="60" height="30" rx="6" fill="#FAEEDA" stroke="#EF9F27" stroke-width="1.5"/><text x="570" y="358" fill="#633806">12</text>
<rect x="606" y="338" width="60" height="30" rx="6" fill="#FAEEDA" stroke="#EF9F27" stroke-width="1.5"/><text x="636" y="358" fill="#633806">13</text>
<rect x="672" y="338" width="60" height="30" rx="6" fill="#F1EFE8" stroke="#B4B2A9" stroke-width="1.5"/><text x="702" y="358" fill="#888780">0</text>
<rect x="738" y="338" width="60" height="30" rx="6" fill="#F1EFE8" stroke="#B4B2A9" stroke-width="1.5"/><text x="768" y="358" fill="#888780">0</text>
</g>
<line x1="110" y1="374" x2="110" y2="422" stroke="#1a1a1a" stroke-width="2" marker-end="url(#arr)"/>

<text x="20" y="448" font-size="14" font-weight="500" fill="#2C2C2A">③ 길이 맞추기</text>
<text x="20" y="466" font-size="11" fill="#888780">pad_sequence</text>
<text x="20" y="486" font-size="11" fill="#A32D2D">짧은 쪽에 &lt;pad&gt; 추가</text>
<g font-size="13" text-anchor="middle">
<rect x="210" y="430" width="60" height="30" rx="6" fill="#F1EFE8" stroke="#B4B2A9" stroke-width="1.5"/><text x="240" y="450" fill="#888780">0</text>
<rect x="276" y="430" width="60" height="30" rx="6" fill="#F1EFE8" stroke="#B4B2A9" stroke-width="1.5"/><text x="306" y="450" fill="#888780">0</text>
<rect x="342" y="430" width="60" height="30" rx="6" fill="#FAEEDA" stroke="#EF9F27" stroke-width="1.5"/><text x="372" y="450" fill="#633806">5</text>
<rect x="408" y="430" width="60" height="30" rx="6" fill="#FAEEDA" stroke="#EF9F27" stroke-width="1.5"/><text x="438" y="450" fill="#633806">6</text>
<rect x="474" y="430" width="60" height="30" rx="6" fill="#FAEEDA" stroke="#EF9F27" stroke-width="1.5"/><text x="504" y="450" fill="#633806">7</text>
<rect x="540" y="430" width="60" height="30" rx="6" fill="#FAEEDA" stroke="#EF9F27" stroke-width="1.5"/><text x="570" y="450" fill="#633806">8</text>
<rect x="606" y="430" width="60" height="30" rx="6" fill="#F1EFE8" stroke="#B4B2A9" stroke-width="1.5"/><text x="636" y="450" fill="#888780">0</text>
<rect x="672" y="430" width="60" height="30" rx="6" fill="#F1EFE8" stroke="#B4B2A9" stroke-width="1.5"/><text x="702" y="450" fill="#888780">0</text>
<rect x="738" y="430" width="60" height="30" rx="6" fill="#FCEBEB" stroke="#E24B4A" stroke-width="2"/><text x="768" y="450" fill="#A32D2D">0</text>
<rect x="210" y="468" width="60" height="30" rx="6" fill="#F1EFE8" stroke="#B4B2A9" stroke-width="1.5"/><text x="240" y="488" fill="#888780">0</text>
<rect x="276" y="468" width="60" height="30" rx="6" fill="#F1EFE8" stroke="#B4B2A9" stroke-width="1.5"/><text x="306" y="488" fill="#888780">0</text>
<rect x="342" y="468" width="60" height="30" rx="6" fill="#FAEEDA" stroke="#EF9F27" stroke-width="1.5"/><text x="372" y="488" fill="#633806">9</text>
<rect x="408" y="468" width="60" height="30" rx="6" fill="#FAEEDA" stroke="#EF9F27" stroke-width="1.5"/><text x="438" y="488" fill="#633806">8</text>
<rect x="474" y="468" width="60" height="30" rx="6" fill="#FAEEDA" stroke="#EF9F27" stroke-width="1.5"/><text x="504" y="488" fill="#633806">11</text>
<rect x="540" y="468" width="60" height="30" rx="6" fill="#FAEEDA" stroke="#EF9F27" stroke-width="1.5"/><text x="570" y="488" fill="#633806">12</text>
<rect x="606" y="468" width="60" height="30" rx="6" fill="#FAEEDA" stroke="#EF9F27" stroke-width="1.5"/><text x="636" y="488" fill="#633806">13</text>
<rect x="672" y="468" width="60" height="30" rx="6" fill="#F1EFE8" stroke="#B4B2A9" stroke-width="1.5"/><text x="702" y="488" fill="#888780">0</text>
<rect x="738" y="468" width="60" height="30" rx="6" fill="#F1EFE8" stroke="#B4B2A9" stroke-width="1.5"/><text x="768" y="488" fill="#888780">0</text>
</g>

<text x="210" y="524" font-size="12" fill="#173404">x_padded : (batch, max_len) = (2, 9)</text>
<text x="540" y="524" font-size="12" fill="#993C1D">lengths = [4, 5]  ← 원래 단어 수</text>
</svg>
